<?xml version="1.0" encoding="UTF-8"?>
<svg width="256px" height="256px" viewBox="0 0 256 256" version="1.1" xmlns="http://www.w3.org/2000/svg">
    <g>
        <path d="M72.4,205.3 L58.8,205.3 L58.8,185.7 L72.4,185.7 C76.2,185.7 79.3,186.6 81.6,188.4 C83.9,190.2 85.1,192.7 85.1,195.9 C85.1,199.1 83.9,201.6 81.6,203.4 C79.3,204.7 76.2,205.3 72.4,205.3 Z M71.9,190.2 L64.4,190.2 L64.4,200.8 L71.9,200.8 C74.2,200.8 76,200.2 77.3,199 C78.6,197.8 79.3,196.3 79.3,194.5 C79.3,192.7 78.6,191.2 77.3,190 C76,189.1 74.2,188.8 71.9,188.8 L71.9,190.2 Z" fill="#252F3E"></path>
        <path d="M97.6,205.3 L92,205.3 L92,185.7 L97.6,185.7 L97.6,205.3 Z" fill="#252F3E"></path>
        <path d="M127.2,193.9 C127.2,197.1 126,199.6 123.7,201.4 C121.4,203.2 118.3,204.1 114.5,204.1 C110.7,204.1 107.6,203.2 105.3,201.4 C103,199.6 101.8,197.1 101.8,193.9 C101.8,190.7 103,188.2 105.3,186.4 C107.6,184.6 110.7,183.7 114.5,183.7 C118.3,183.7 121.4,184.6 123.7,186.4 C126,188.2 127.2,190.7 127.2,193.9 Z M121.6,193.9 C121.6,192.1 120.9,190.6 119.6,189.4 C118.3,188.2 116.5,187.6 114.2,187.6 C111.9,187.6 110.1,188.2 108.8,189.4 C107.5,190.6 106.8,192.1 106.8,193.9 C106.8,195.7 107.5,197.2 108.8,198.4 C110.1,199.6 111.9,200.2 114.2,200.2 C116.5,200.2 118.3,199.6 119.6,198.4 C120.9,197.2 121.6,195.7 121.6,193.9 Z" fill="#252F3E"></path>
        <path d="M149.8,205.3 L144.2,205.3 L144.2,189.6 L136.7,189.6 L136.7,185.7 L157.3,185.7 L157.3,189.6 L149.8,189.6 L149.8,205.3 Z" fill="#252F3E"></path>
        <path d="M180.8,205.3 L167.2,205.3 L167.2,185.7 L180.8,185.7 C184.6,185.7 187.7,186.6 190,188.4 C192.3,190.2 193.5,192.7 193.5,195.9 C193.5,199.1 192.3,201.6 190,203.4 C187.7,204.7 184.6,205.3 180.8,205.3 Z M180.3,190.2 L172.8,190.2 L172.8,200.8 L180.3,200.8 C182.6,200.8 184.4,200.2 185.7,199 C187,197.8 187.7,196.3 187.7,194.5 C187.7,192.7 187,191.2 185.7,190 C184.4,189.1 182.6,188.8 180.3,188.8 L180.3,190.2 Z" fill="#252F3E"></path>
    </g>
</svg>
