<?xml version="1.0" encoding="UTF-8"?>
<svg width="256px" height="256px" viewBox="0 0 256 256" version="1.1" xmlns="http://www.w3.org/2000/svg">
    <g>
        <path d="M119.878169,0.0988020842 C123.93348,-0.0329340281 127.988791,0.0988020842 131.912436,0.825370845 C139.296367,2.14573399 146.186671,5.33140453 152.452019,9.51831183 C173.567768,23.0908247 194.815183,36.5300433 215.930932,50.1025562 C221.274946,53.4848151 226.09172,57.7383166 228.608001,63.3837336 C231.25695,69.1624449 231.388616,75.9997065 229.134003,81.9117121 C227.537501,86.0986194 224.626846,89.6141726 221.25328,92.4053392 C199.005865,106.109518 176.626784,119.681963 154.247702,133.254407 C148.508021,136.90163 142.373339,140.284889 135.704702,141.736918 C129.82906,143.057282 123.690044,142.794616 117.945697,141.341921 C112.86505,139.889226 108.308508,136.90163 104.647195,133.122741 C83.5314456,119.550297 62.4157012,105.977853 41.2999519,92.4053392 C37.7719332,90.0141726 34.5005729,87.0922002 32.2459598,83.5766469 C29.3353052,79.1231454 28.2613633,73.6110227 29.0686469,68.4951393 C29.7442721,64.1749321 31.8921579,60.1847305 34.6344282,56.8024716 C55.6185192,43.2299587 76.6026103,29.6574458 97.5867014,16.0849329 C104.384529,11.7647257 111.972501,8.44580115 119.878169,0.0988020842 Z" fill="#539E43"></path>
    </g>
</svg>
