<?xml version="1.0" encoding="UTF-8"?>
<svg width="256px" height="256px" viewBox="0 0 256 256" version="1.1" xmlns="http://www.w3.org/2000/svg">
    <g>
        <path d="M255.007926,158.085617 C253.473109,153.437834 249.452194,150.199777 244.251788,149.42182 C241.799982,149.055852 238.991667,149.211935 235.668988,149.897164 C229.877358,151.092028 225.580342,151.546679 222.44449,151.635363 C234.280794,131.650217 243.905921,108.859714 249.446873,87.4065589 C258.406282,52.7182633 253.61855,36.9154365 248.023797,29.7669469 C233.217182,10.8477783 211.614448,0.683454965 185.55152,0.371879908 C171.649478,0.197480063 157.461163,2.48725057 143.503087,7.15969007 C136.223984,4.46939822 128.584309,2.90606701 120.694788,2.48725057 C103.362502,1.62967695 87.8398752,6.48565863 75.9757514,16.8153873 C64.5003462,26.7684897 57.9365483,40.0759513 56.6867649,55.8073693 C56.5666079,57.0569059 56.4976462,58.3193664 56.4561143,59.5818269 C56.1096562,71.5252117 57.3886703,82.9171333 60.1359085,93.5629593 C57.5657756,99.3674825 55.4611844,105.505951 53.9124935,111.644419 C50.0935779,126.327617 48.4103858,140.886069 48.9481755,154.917241 C49.0406675,157.585111 49.2043649,160.237122 49.4642899,162.889133 C44.3897567,163.526769 40.0093056,164.808975 36.9030179,166.910045 C27.4875584,172.608077 24.9679707,181.283019 25.1040483,187.7294 C25.2675249,195.091342 29.0864404,201.796789 35.7833164,206.758185 C42.4664231,211.705726 51.6555624,214.635767 61.9774932,214.909716 C63.4607144,214.968081 64.9992664,214.968081 66.5239888,214.909716 C74.4682886,214.593997 82.5973644,212.493218 87.2994938,209.040093 C87.6321225,208.798366 87.9785806,208.570784 88.3111618,208.329057 C92.4872056,211.618361 97.0339766,214.272684 101.868515,216.272588 C115.915276,221.840127 131.668423,223.195557 145.958117,220.50911 C146.522348,221.213583 147.141872,221.917747 147.833006,222.608056 C159.483626,234.224718 174.630819,237.291485 187.584,236.67557 C195.241994,236.308292 202.899988,234.759579 209.368151,232.208424 C219.100255,228.390669 227.016564,222.580367 231.123168,213.905425 C235.115517,205.529997 234.825994,195.577118 230.392916,184.683743 C228.914723,180.841843 226.739505,177.102505 224.092494,173.56493 C229.345146,172.256358 233.245457,170.790646 235.269797,169.546684 C240.057897,166.82509 242.915797,163.075752 243.766387,158.716397 C244.312144,155.890644 244.391635,152.858021 243.781491,149.723913 L255.007926,158.085617 Z" fill="#336791"></path>
    </g>
</svg>
