<?xml version="1.0" encoding="UTF-8"?>
<svg width="256px" height="256px" viewBox="0 0 256 256" version="1.1" xmlns="http://www.w3.org/2000/svg" preserveAspectRatio="xMidYMid">
    <g>
        <rect fill="#3178C6" x="0" y="0" width="256" height="256" rx="28"></rect>
        <path d="M149.815674,121.960932 L149.815674,139.607487 C144.628287,137.246281 139.195313,136.065674 133.516754,136.065674 C127.838194,136.065674 123.27828,137.246281 119.837011,139.607487 C116.395743,141.968692 114.675109,145.479439 114.675109,150.139731 C114.675109,154.800022 116.395743,158.310769 119.837011,160.671975 C123.27828,163.03318 127.838194,164.213787 133.516754,164.213787 C139.195313,164.213787 144.628287,163.03318 149.815674,160.671975 L149.815674,178.318529 C144.13712,180.679735 138.213787,181.860337 132.045674,181.860337 C121.670913,181.860337 113.249457,179.008697 106.781308,173.305413 C100.313159,167.602128 97.0790849,159.935239 97.0790849,150.304739 C97.0790849,140.674239 100.313159,133.00735 106.781308,127.304065 C113.249457,121.600781 121.670913,118.749141 132.045674,118.749141 C138.213787,118.749141 144.13712,119.929743 149.815674,121.960932 Z M180.095891,123.291033 L180.095891,137.081272 L165.135457,137.081272 L165.135457,181.365239 L147.869457,181.365239 L147.869457,137.081272 L132.909022,137.081272 L132.909022,123.291033 L180.095891,123.291033 Z" fill="#FFFFFF"></path>
    </g>
</svg>
